# This file uses meters as units for non-parametric coordinates.

mtllib whip_tip.mtl
g default
v 3.105826 2.214581 -3.105825
v 0.000000 2.214581 -4.392301
v -3.105825 2.214581 -3.105825
v -4.392301 2.214581 0.000000
v -3.105825 2.214581 3.105826
v 0.000000 2.214581 4.392302
v 3.105826 2.214581 3.105826
v 4.392302 2.214581 0.000000
v 3.367460 16.454710 -3.367459
v 0.000000 16.454710 -4.762306
v -3.367459 16.454710 -3.367459
v -4.762306 16.454710 0.000000
v -3.367459 16.454710 3.367460
v 0.000000 16.454710 4.762307
v 3.367460 16.454710 3.367460
v 4.762307 16.454710 0.000000
v 0.000000 20.981169 0.000000
v 5.588189 4.401593 -5.588189
v -0.000000 4.401593 -7.902892
v -5.588189 4.401593 -5.588189
v -7.902892 4.401593 0.000000
v -5.588189 4.401593 5.588189
v -0.000000 4.401593 7.902894
v 5.588189 4.401593 5.588189
v 7.902894 4.401593 0.000000
v 0.000000 0.000007 -4.392302
v -3.105825 0.000007 -3.105827
v 0.000000 0.000000 -0.000000
v -4.392301 0.000007 -0.000000
v -3.105825 0.000007 3.105826
v 0.000000 0.000007 4.392302
v 3.105826 0.000007 3.105826
v 4.392302 0.000007 0.000000
v 3.105826 0.000007 -3.105825
vt 0.275911 0.251249
vt 0.189500 0.287042
vt 0.189500 0.164838
vt 0.311704 0.164838
vt 0.103088 0.251249
vt 0.067296 0.164838
vt 0.275911 0.078426
vt 0.189500 0.042634
vt 0.103088 0.078426
vt 0.608781 0.220401
vt 0.608781 0.425347
vt 0.463862 0.365320
vt 0.403835 0.220401
vt 0.813726 0.220401
vt 0.753699 0.365320
vt 0.463862 0.075483
vt 0.608781 0.015456
vt 0.753699 0.075483
vt 0.781146 0.384744
vt 0.829485 0.532515
vt 0.510759 0.636777
vt 0.481630 0.547729
vt 0.860451 0.431468
vt 0.887317 0.513597
vt 0.877824 0.680286
vt 0.539888 0.725824
vt 0.919012 0.412311
vt 0.945878 0.494440
vt 0.924726 0.673966
vt 0.984778 0.665874
vt 0.227283 0.917337
vt 0.177007 0.770214
vt 0.494336 0.661774
vt 0.524633 0.750431
vt 0.147371 0.871659
vt 0.119428 0.789890
vt 0.126731 0.623091
vt 0.464040 0.573117
vt 0.089067 0.891583
vt 0.061124 0.809814
vt 0.079916 0.630026
vt 0.019975 0.638907
vt 0.132190 0.467710
vt 0.467329 0.479484
vt 0.071380 0.465574
vt 0.137649 0.312329
vt 0.470619 0.385852
vt 0.009803 0.463410
vt 0.074414 0.379215
vt 0.012837 0.377052
vt 0.870324 0.835581
vt 0.535369 0.819405
vt 0.931101 0.838517
vt 0.862825 0.990877
vt 0.530849 0.912987
vt 0.992644 0.841489
vt 0.926933 0.924827
vt 0.988476 0.927799
vn 0.372055 0.234042 -0.898220
vn 0.372055 0.234042 -0.898220
vn 0.372055 0.234042 -0.898220
vn 0.372055 0.234042 -0.898220
vn -0.372055 0.234042 -0.898220
vn -0.372055 0.234042 -0.898220
vn -0.372055 0.234042 -0.898220
vn -0.372055 0.234042 -0.898220
vn -0.898220 0.234042 -0.372055
vn -0.898220 0.234042 -0.372055
vn -0.898220 0.234042 -0.372055
vn -0.898220 0.234042 -0.372055
vn -0.898220 0.234042 0.372055
vn -0.898220 0.234042 0.372055
vn -0.898220 0.234042 0.372055
vn -0.898220 0.234042 0.372055
vn -0.372055 0.234042 0.898220
vn -0.372055 0.234042 0.898220
vn -0.372055 0.234042 0.898220
vn -0.372055 0.234042 0.898220
vn 0.372055 0.234042 0.898220
vn 0.372055 0.234042 0.898220
vn 0.372055 0.234042 0.898220
vn 0.372055 0.234042 0.898220
vn 0.898220 0.234042 0.372055
vn 0.898220 0.234042 0.372055
vn 0.898220 0.234042 0.372055
vn 0.898220 0.234042 0.372055
vn 0.898220 0.234042 -0.372055
vn 0.898220 0.234042 -0.372055
vn 0.898220 0.234042 -0.372055
vn 0.898220 0.234042 -0.372055
vn -0.000001 -1.000000 -0.000001
vn -0.000000 -1.000000 -0.000001
vn 0.000000 -1.000000 -0.000000
vn -0.000001 -1.000000 -0.000000
vn -0.000001 -1.000000 0.000001
vn -0.000000 -1.000000 0.000001
vn 0.000001 -1.000000 0.000001
vn 0.000001 -1.000000 -0.000000
vn 0.000001 -1.000000 -0.000001
vn 0.000000 1.000000 0.000000
vn 0.000000 0.829968 -0.557812
vn -0.487148 0.724827 -0.487148
vn -0.557811 0.829968 0.000000
vn -0.487148 0.724827 0.487148
vn 0.000000 0.829968 0.557812
vn 0.487148 0.724827 0.487148
vn 0.557811 0.829968 0.000000
vn 0.487148 0.724827 -0.487148
vn 0.213949 -0.829116 -0.516519
vn 0.213949 -0.829116 -0.516519
vn 0.213949 -0.829116 -0.516519
vn 0.213949 -0.829116 -0.516519
vn -0.213949 -0.829116 -0.516519
vn -0.213949 -0.829116 -0.516519
vn -0.213949 -0.829116 -0.516519
vn -0.213949 -0.829116 -0.516519
vn -0.516519 -0.829116 -0.213949
vn -0.516519 -0.829116 -0.213949
vn -0.516519 -0.829116 -0.213949
vn -0.516519 -0.829116 -0.213949
vn -0.516519 -0.829116 0.213949
vn -0.516519 -0.829116 0.213949
vn -0.516519 -0.829116 0.213949
vn -0.516519 -0.829116 0.213949
vn -0.213949 -0.829116 0.516519
vn -0.213949 -0.829116 0.516519
vn -0.213949 -0.829116 0.516519
vn -0.213949 -0.829116 0.516519
vn 0.213949 -0.829116 0.516519
vn 0.213949 -0.829116 0.516519
vn 0.213949 -0.829116 0.516519
vn 0.213949 -0.829116 0.516519
vn 0.516519 -0.829116 0.213949
vn 0.516519 -0.829116 0.213949
vn 0.516519 -0.829116 0.213949
vn 0.516519 -0.829116 0.213949
vn 0.516519 -0.829116 -0.213949
vn 0.516519 -0.829116 -0.213949
vn 0.516519 -0.829116 -0.213949
vn 0.516519 -0.829116 -0.213949
vn -0.382683 0.000000 -0.923880
vn -0.382683 0.000000 -0.923880
vn -0.382683 0.000000 -0.923880
vn -0.382683 0.000000 -0.923880
vn -0.923880 0.000000 -0.382683
vn -0.923880 0.000000 -0.382683
vn -0.923880 0.000000 -0.382683
vn -0.923880 0.000000 -0.382683
vn -0.923880 0.000000 0.382683
vn -0.923880 0.000000 0.382683
vn -0.923880 0.000000 0.382683
vn -0.923880 0.000000 0.382683
vn -0.382684 0.000000 0.923880
vn -0.382684 0.000000 0.923880
vn -0.382684 0.000000 0.923880
vn -0.382684 0.000000 0.923880
vn 0.382683 0.000000 0.923880
vn 0.382683 0.000000 0.923880
vn 0.382683 0.000000 0.923880
vn 0.382683 0.000000 0.923880
vn 0.923880 0.000000 0.382684
vn 0.923880 0.000000 0.382684
vn 0.923880 0.000000 0.382684
vn 0.923880 0.000000 0.382684
vn 0.923879 0.000000 -0.382684
vn 0.923879 0.000000 -0.382684
vn 0.923879 0.000000 -0.382684
vn 0.923879 0.000000 -0.382684
vn 0.382684 0.000000 -0.923880
vn 0.382684 0.000000 -0.923880
vn 0.382684 0.000000 -0.923880
vn 0.382684 0.000000 -0.923880
s off
g whip_tip
usemtl initialShadingGroup
f 18/37/1 19/43/2 10/44/3 9/38/4
f 19/43/5 20/46/6 11/47/7 10/44/8
f 20/19/9 21/20/10 12/21/11 11/22/12
f 21/20/13 22/25/14 13/26/15 12/21/16
f 22/25/17 23/51/18 14/52/19 13/26/20
f 23/51/21 24/54/22 15/55/23 14/52/24
f 24/31/25 25/32/26 16/33/27 15/34/28
f 25/32/29 18/37/30 9/38/31 16/33/32
s 1
f 27/1/33 26/2/34 28/3/35 29/4/36
f 30/7/37 29/4/36 28/3/35 31/8/38
f 32/9/39 31/8/38 28/3/35 33/6/40
f 34/5/41 33/6/40 28/3/35 26/2/34
s 2
f 17/10/42 10/11/43 11/12/44 12/13/45
f 17/10/42 12/13/45 13/16/46 14/17/47
f 17/10/42 14/17/47 15/18/48 16/14/49
f 17/10/42 16/14/49 9/15/50 10/11/43
s off
f 1/41/51 2/45/52 19/43/53 18/37/54
f 2/45/55 3/49/56 20/46/57 19/43/58
f 3/23/59 4/24/60 21/20/61 20/19/62
f 4/24/63 5/29/64 22/25/65 21/20/66
f 5/29/67 6/53/68 23/51/69 22/25/70
f 6/53/71 7/57/72 24/54/73 23/51/74
f 7/35/75 8/36/76 25/32/77 24/31/78
f 8/36/79 1/41/80 18/37/81 25/32/82
f 3/49/83 2/45/84 26/48/85 27/50/86
f 4/24/87 3/23/88 27/27/89 29/28/90
f 5/29/91 4/24/92 29/28/93 30/30/94
f 6/53/95 5/29/96 30/30/97 31/56/98
f 7/57/99 6/53/100 31/56/101 32/58/102
f 8/36/103 7/35/104 32/39/105 33/40/106
f 1/41/107 8/36/108 33/40/109 34/42/110
f 2/45/111 1/41/112 34/42/113 26/48/114
